G04 DipTrace 3.0.0.2*
G04 Bottom.gbl*
%MOIN*%
G04 #@! TF.FileFunction,Copper,L2,Bot*
G04 #@! TF.Part,Single*
G04 #@! TA.AperFunction,CopperBalancing*
%ADD14C,0.025*%
%ADD15C,0.013*%
G04 #@! TA.AperFunction,ComponentPad*
%ADD17R,0.066929X0.066929*%
%ADD18C,0.066929*%
G04 #@! TA.AperFunction,ViaPad*
%ADD21C,0.02*%
%FSLAX26Y26*%
G04*
G70*
G90*
G75*
G01*
G04 Bottom*
%LPD*%
D21*
X693969Y1143921D3*
X512735Y1444017D2*
D14*
X1184541D1*
X512735Y1419148D2*
X1181856D1*
X512735Y1394280D2*
X1190156D1*
X512735Y1369411D2*
X1200948D1*
X512735Y1344542D2*
X1184736D1*
X509463Y1319673D2*
X1181807D1*
X512442Y1294804D2*
X1189815D1*
X504483Y1269936D2*
X1201534D1*
X492568Y1245067D2*
X1184883D1*
X509316Y1220198D2*
X1181759D1*
X512491Y1195329D2*
X1189522D1*
X504776Y1170461D2*
X1202119D1*
X491983Y1145592D2*
X1185079D1*
X509122Y1120723D2*
X1181709D1*
X512539Y1095854D2*
X1189228D1*
X505068Y1070986D2*
X1202706D1*
X491396Y1046117D2*
X1185274D1*
X508927Y1021248D2*
X1181660D1*
X512588Y996379D2*
X1188936D1*
X505362Y971510D2*
X1203340D1*
X490762Y946642D2*
X1185469D1*
X508731Y921773D2*
X1181660D1*
X512636Y896904D2*
X1188643D1*
X505655Y872035D2*
X1203975D1*
X490079Y847167D2*
X1185664D1*
X508535Y822298D2*
X1181612D1*
X512636Y797429D2*
X1188399D1*
X505948Y772560D2*
X1204659D1*
X489444Y747692D2*
X1185908D1*
X508291Y722823D2*
X1181563D1*
X512686Y697954D2*
X1188106D1*
X506192Y673085D2*
X1205343D1*
X488711Y648217D2*
X1186104D1*
X508096Y623348D2*
X1181563D1*
X512686Y598479D2*
X1187862D1*
X506484Y573610D2*
X1181514D1*
X488028Y548741D2*
X1181514D1*
X507852Y523873D2*
X1181514D1*
X512686Y499004D2*
X1181514D1*
X506728Y474135D2*
X1181514D1*
X484316Y449266D2*
X1272676D1*
X415249Y424398D2*
X1272676D1*
X412697Y1460215D2*
X510214D1*
Y1340286D1*
X494930D1*
X501378Y1331583D1*
X505650Y1323198D1*
X508556Y1314249D1*
X510029Y1304955D1*
Y1295546D1*
X508556Y1286252D1*
X505650Y1277303D1*
X501378Y1268919D1*
X495846Y1261307D1*
X489193Y1254654D1*
X483308Y1250277D1*
X489193Y1245848D1*
X495846Y1239194D1*
X501378Y1231583D1*
X505650Y1223198D1*
X508556Y1214249D1*
X510029Y1204955D1*
Y1195546D1*
X508556Y1186252D1*
X505650Y1177303D1*
X501378Y1168919D1*
X495846Y1161307D1*
X489193Y1154654D1*
X483308Y1150277D1*
X489193Y1145848D1*
X495846Y1139194D1*
X501378Y1131583D1*
X505650Y1123198D1*
X508556Y1114249D1*
X510029Y1104955D1*
Y1095546D1*
X508556Y1086252D1*
X505650Y1077303D1*
X501378Y1068919D1*
X495846Y1061307D1*
X489193Y1054654D1*
X483308Y1050277D1*
X489193Y1045848D1*
X495846Y1039194D1*
X501378Y1031583D1*
X505650Y1023198D1*
X508556Y1014249D1*
X510029Y1004955D1*
Y995546D1*
X508556Y986252D1*
X505650Y977303D1*
X501378Y968919D1*
X495846Y961307D1*
X489193Y954654D1*
X483308Y950277D1*
X491087Y944160D1*
X496245Y938723D1*
X500685Y932684D1*
X504337Y926139D1*
X507144Y919189D1*
X509063Y911944D1*
X510062Y904516D1*
X510005Y895256D1*
X508916Y887841D1*
X506909Y880619D1*
X504018Y873705D1*
X500286Y867205D1*
X495773Y861220D1*
X490549Y855846D1*
X483340Y850257D1*
X489193Y845848D1*
X495846Y839194D1*
X501378Y831583D1*
X505650Y823198D1*
X508556Y814249D1*
X510029Y804955D1*
Y795546D1*
X508556Y786252D1*
X505650Y777303D1*
X501378Y768919D1*
X495846Y761307D1*
X489193Y754654D1*
X483308Y750277D1*
X489193Y745848D1*
X495846Y739194D1*
X501378Y731583D1*
X505650Y723198D1*
X508556Y714249D1*
X510029Y704955D1*
Y695546D1*
X508556Y686252D1*
X505650Y677303D1*
X501378Y668919D1*
X495846Y661307D1*
X489193Y654654D1*
X483308Y650277D1*
X489193Y645848D1*
X495846Y639194D1*
X501378Y631583D1*
X505650Y623198D1*
X508556Y614249D1*
X510029Y604955D1*
Y595546D1*
X508556Y586252D1*
X505650Y577303D1*
X501378Y568919D1*
X495846Y561307D1*
X489193Y554654D1*
X483308Y550277D1*
X489193Y545848D1*
X495846Y539194D1*
X501378Y531583D1*
X505650Y523198D1*
X508556Y514249D1*
X510029Y504955D1*
Y495546D1*
X508556Y486252D1*
X505650Y477303D1*
X501378Y468919D1*
X495846Y461307D1*
X489193Y454654D1*
X481581Y449122D1*
X473197Y444850D1*
X464248Y441944D1*
X454954Y440471D1*
X445545D1*
X436251Y441944D1*
X427302Y444850D1*
X418917Y449122D1*
X412735Y453526D1*
X412749Y412749D1*
X1275156D1*
Y465240D1*
X1184035Y465285D1*
Y585214D1*
X1199319D1*
X1192871Y593917D1*
X1188600Y602302D1*
X1185693Y611251D1*
X1184220Y620545D1*
Y629954D1*
X1185693Y639248D1*
X1188600Y648197D1*
X1192871Y656581D1*
X1198403Y664193D1*
X1205056Y670846D1*
X1210941Y675223D1*
X1205056Y679652D1*
X1198403Y686306D1*
X1192871Y693917D1*
X1188600Y702302D1*
X1185693Y711251D1*
X1184220Y720545D1*
Y729954D1*
X1185693Y739248D1*
X1188600Y748197D1*
X1192871Y756581D1*
X1198403Y764193D1*
X1205056Y770846D1*
X1210941Y775223D1*
X1205056Y779652D1*
X1198403Y786306D1*
X1192871Y793917D1*
X1188600Y802302D1*
X1185693Y811251D1*
X1184220Y820545D1*
Y829954D1*
X1185693Y839248D1*
X1188600Y848197D1*
X1192871Y856581D1*
X1198403Y864193D1*
X1205056Y870846D1*
X1210941Y875223D1*
X1205056Y879652D1*
X1198403Y886306D1*
X1192871Y893917D1*
X1188600Y902302D1*
X1185693Y911251D1*
X1184220Y920545D1*
Y929954D1*
X1185693Y939248D1*
X1188600Y948197D1*
X1192871Y956581D1*
X1198403Y964193D1*
X1205056Y970846D1*
X1210941Y975223D1*
X1205056Y979652D1*
X1198403Y986306D1*
X1192871Y993917D1*
X1188600Y1002302D1*
X1185693Y1011251D1*
X1184220Y1020545D1*
Y1029954D1*
X1185693Y1039248D1*
X1188600Y1048197D1*
X1192871Y1056581D1*
X1198403Y1064193D1*
X1205056Y1070846D1*
X1210941Y1075223D1*
X1205056Y1079652D1*
X1198403Y1086306D1*
X1192871Y1093917D1*
X1188600Y1102302D1*
X1185693Y1111251D1*
X1184220Y1120545D1*
Y1129954D1*
X1185693Y1139248D1*
X1188600Y1148197D1*
X1192871Y1156581D1*
X1198403Y1164193D1*
X1205056Y1170846D1*
X1210941Y1175223D1*
X1205056Y1179652D1*
X1198403Y1186306D1*
X1192871Y1193917D1*
X1188600Y1202302D1*
X1185693Y1211251D1*
X1184220Y1220545D1*
Y1229954D1*
X1185693Y1239248D1*
X1188600Y1248197D1*
X1192871Y1256581D1*
X1198403Y1264193D1*
X1205056Y1270846D1*
X1210941Y1275223D1*
X1205056Y1279652D1*
X1198403Y1286306D1*
X1192871Y1293917D1*
X1188600Y1302302D1*
X1185693Y1311251D1*
X1184220Y1320545D1*
Y1329954D1*
X1185693Y1339248D1*
X1188600Y1348197D1*
X1192871Y1356581D1*
X1198403Y1364193D1*
X1205056Y1370846D1*
X1210941Y1375223D1*
X1205056Y1379652D1*
X1198403Y1386306D1*
X1192871Y1393917D1*
X1188600Y1402302D1*
X1185693Y1411251D1*
X1184220Y1420545D1*
Y1429954D1*
X1185693Y1439248D1*
X1188600Y1448197D1*
X1192871Y1456581D1*
X1198403Y1464193D1*
X1202936Y1468887D1*
X412749Y1468886D1*
Y1460243D1*
X450249Y900251D2*
D15*
X510165D1*
D17*
X450249Y1400251D3*
D18*
Y1300251D3*
Y1200251D3*
Y1100251D3*
Y1000251D3*
Y900251D3*
Y800251D3*
Y700251D3*
Y600251D3*
Y500251D3*
D17*
X1237661Y506488D3*
D18*
Y606488D3*
Y706488D3*
Y806488D3*
Y906488D3*
Y1006488D3*
Y1106488D3*
Y1206488D3*
Y1306488D3*
Y1406488D3*
M02*
