G04 DipTrace 3.0.0.2*
G04 Top.gtl*
%MOIN*%
G04 #@! TF.FileFunction,Copper,L1,Top*
G04 #@! TF.Part,Single*
G04 #@! TA.AperFunction,Conductor*
%ADD13C,0.008*%
%ADD16R,0.070866X0.015748*%
G04 #@! TA.AperFunction,ComponentPad*
%ADD17R,0.066929X0.066929*%
%ADD18C,0.066929*%
%ADD19R,0.059055X0.051181*%
%ADD20R,0.051181X0.059055*%
G04 #@! TA.AperFunction,ViaPad*
%ADD21C,0.02*%
%FSLAX26Y26*%
G04*
G70*
G90*
G75*
G01*
G04 Top*
%LPD*%
X1237661Y1406488D2*
D13*
X1118988D1*
X1031500Y1319000D1*
Y1053155D1*
X1028596Y1050251D1*
Y1024660D2*
X1062160D1*
X1094000Y1056500D1*
Y1256500D1*
X1169000Y1331500D1*
X1212650D1*
X1237661Y1306488D1*
X1028596Y999070D2*
X1074070D1*
X1119000Y1044000D1*
Y1087827D1*
X1237661Y1206488D1*
X1028596Y973479D2*
X1085978D1*
X1150249Y1037751D1*
Y1069000D1*
X1200249Y1119000D1*
X1225150D1*
X1237661Y1106488D1*
X1028596Y947888D2*
X1097888D1*
X1169000Y1019000D1*
X1225150D1*
X1237661Y1006488D1*
X1028596Y922298D2*
X1221852D1*
X1237661Y906488D1*
X1028596Y896707D2*
X1091293D1*
X1150249Y837751D1*
X1206399D1*
X1237661Y806488D1*
X1028596Y871117D2*
X1079261D1*
X1243890Y706488D1*
X1237661D1*
X1028596Y845526D2*
X1061223D1*
X1181500Y725249D1*
Y662650D1*
X1237661Y606488D1*
Y506488D2*
X1225261D1*
X1031500Y700249D1*
Y817039D1*
X1028604Y819936D1*
X631500Y694197D2*
X587554D1*
X531500Y750251D1*
Y819000D1*
X450249Y900251D1*
X637751Y869197D2*
X687948D1*
X737751Y919000D1*
X796951D1*
X800249Y922298D1*
X631500Y694197D2*
X650448D1*
X681500Y725249D1*
Y861329D1*
X689367Y869197D1*
X687948D1*
X650034Y1131423D2*
X681470D1*
X693969Y1143921D1*
X450249Y1100251D2*
X544059D1*
X575231Y1131423D1*
X662749Y1044000D2*
X662654D1*
X575231Y1131423D1*
X800249Y973479D2*
X733270D1*
X662749Y1044000D1*
X450249Y1000251D2*
X544197D1*
X587946Y1044000D1*
X637751Y944000D2*
Y994196D1*
X587946Y1044000D1*
X637751Y944000D2*
X796361D1*
X800249Y947888D1*
X631500Y769000D2*
X600251D1*
X562751Y806500D1*
Y869000D1*
X637751Y944000D1*
X450249Y800251D2*
Y775251D1*
X544000Y681500D1*
Y631499D1*
X587749Y587749D1*
X656499D1*
X700249Y631500D1*
Y844000D1*
X750249Y894000D1*
X797542D1*
X800249Y896707D1*
X450249Y700251D2*
Y675251D1*
X587751Y537749D1*
X669000D1*
X719000Y587749D1*
Y837749D1*
X750251Y869000D1*
X798133D1*
X800249Y871117D1*
Y845526D2*
X764277D1*
X744000Y825249D1*
Y537751D1*
X675249Y469000D1*
X581500D1*
X450249Y600251D1*
Y500251D2*
Y487749D1*
X512749Y425249D1*
X731499D1*
X812749Y506500D1*
Y819936D1*
X800249D1*
Y999070D2*
X751430D1*
X719000Y1031500D1*
Y1181501D1*
X675251Y1225251D1*
X475249D1*
X450249Y1200251D1*
Y1300251D2*
X694000D1*
X744000Y1250251D1*
Y1050249D1*
X769000Y1025249D1*
X799660D1*
X800249Y1024660D1*
X450249Y1400251D2*
X712749D1*
X794000Y1319000D1*
Y1056500D1*
X800249Y1050251D1*
D21*
X693969Y1143921D3*
D16*
X800249Y1050251D3*
Y1024660D3*
Y999070D3*
Y973479D3*
Y947888D3*
Y922298D3*
Y896707D3*
Y871117D3*
Y845526D3*
Y819936D3*
X1028604D3*
X1028596Y845526D3*
Y871117D3*
Y896707D3*
Y922298D3*
Y947888D3*
Y973479D3*
Y999070D3*
Y1024660D3*
Y1050251D3*
D17*
X450249Y1400251D3*
D18*
Y1300251D3*
Y1200251D3*
Y1100251D3*
Y1000251D3*
Y900251D3*
Y800251D3*
Y700251D3*
Y600251D3*
Y500251D3*
D17*
X1237661Y506488D3*
D18*
Y606488D3*
Y706488D3*
Y806488D3*
Y906488D3*
Y1006488D3*
Y1106488D3*
Y1206488D3*
Y1306488D3*
Y1406488D3*
D19*
X637751Y944000D3*
Y869197D3*
X631500Y769000D3*
Y694197D3*
D20*
X575231Y1131423D3*
X650034D3*
X662749Y1044000D3*
X587946D3*
M02*
