G04 DipTrace 3.0.0.2*
G04 TopSilk.gto*
%MOIN*%
G04 #@! TF.FileFunction,Legend,Top*
G04 #@! TF.Part,Single*
%ADD10C,0.009843*%
%ADD36C,0.00772*%
%FSLAX26Y26*%
G04*
G70*
G90*
G75*
G01*
G04 TopSilk*
%LPD*%
X851441Y1065023D2*
D10*
Y805163D1*
X977412Y1065023D2*
Y805163D1*
X851441D2*
X977412D1*
X851441Y1065023D2*
X894738D1*
X934115D2*
X977412D1*
X894738D2*
G03X934115Y1065023I19689J-9D01*
G01*
X500251Y1450271D2*
X400249D1*
Y450230D1*
X500251D1*
Y1450271D1*
X1187660Y456468D2*
X1287661D1*
Y1456508D1*
X1187660D1*
Y456468D1*
X612180Y985360D2*
X663322D1*
X605929Y810360D2*
X657071D1*
X533871Y1105852D2*
Y1156993D1*
X860151Y1088006D2*
D36*
Y1138246D1*
X841028Y1088006D1*
X821904Y1138246D1*
Y1088006D1*
X909083Y1131061D2*
X904330Y1135869D1*
X897145Y1138246D1*
X887584D1*
X880399Y1135869D1*
X875590Y1131061D1*
Y1126308D1*
X878022Y1121499D1*
X880399Y1119123D1*
X885152Y1116746D1*
X899522Y1111938D1*
X904330Y1109561D1*
X906707Y1107129D1*
X909083Y1102376D1*
Y1095191D1*
X904330Y1090438D1*
X897145Y1088006D1*
X887584D1*
X880399Y1090438D1*
X875590Y1095191D1*
X924523Y1111938D2*
X946078D1*
X953208Y1114314D1*
X955639Y1116746D1*
X958016Y1121499D1*
Y1128684D1*
X955639Y1133438D1*
X953208Y1135869D1*
X946078Y1138246D1*
X924523D1*
Y1088006D1*
X975887Y1126253D2*
Y1128629D1*
X978264Y1133438D1*
X980640Y1135814D1*
X985449Y1138191D1*
X995010D1*
X999764Y1135814D1*
X1002140Y1133438D1*
X1004572Y1128629D1*
Y1123876D1*
X1002140Y1119068D1*
X997387Y1111938D1*
X973455Y1088006D1*
X1006949D1*
X552710Y1430807D2*
Y1392561D1*
X550333Y1385376D1*
X547901Y1382999D1*
X543148Y1380567D1*
X538339D1*
X533586Y1382999D1*
X531210Y1385376D1*
X528778Y1392561D1*
Y1397314D1*
X596834Y1430752D2*
X572957D1*
X570581Y1409252D1*
X572957Y1411629D1*
X580142Y1414060D1*
X587272D1*
X594457Y1411629D1*
X599266Y1406875D1*
X601642Y1399690D1*
Y1394937D1*
X599266Y1387752D1*
X594457Y1382944D1*
X587272Y1380567D1*
X580142D1*
X572957Y1382944D1*
X570581Y1385376D1*
X568149Y1390129D1*
X1105166Y1424543D2*
Y1386297D1*
X1102789Y1379112D1*
X1100357Y1376735D1*
X1095604Y1374303D1*
X1090796D1*
X1086042Y1376735D1*
X1083666Y1379112D1*
X1081234Y1386297D1*
Y1391050D1*
X1149290Y1417358D2*
X1146913Y1422111D1*
X1139728Y1424488D1*
X1134975D1*
X1127790Y1422111D1*
X1122981Y1414926D1*
X1120605Y1402988D1*
Y1391050D1*
X1122981Y1381488D1*
X1127790Y1376680D1*
X1134975Y1374303D1*
X1137352D1*
X1144481Y1376680D1*
X1149290Y1381488D1*
X1151666Y1388673D1*
Y1391050D1*
X1149290Y1398235D1*
X1144481Y1402988D1*
X1137352Y1405365D1*
X1134975D1*
X1127790Y1402988D1*
X1122981Y1398235D1*
X1120605Y1391050D1*
X546938Y907952D2*
X542185Y905575D1*
X537377Y900767D1*
X535000Y896014D1*
Y886452D1*
X537377Y881643D1*
X542185Y876890D1*
X546938Y874458D1*
X554123Y872082D1*
X566117D1*
X573247Y874458D1*
X578055Y876890D1*
X582808Y881643D1*
X585240Y886452D1*
Y896013D1*
X582808Y900767D1*
X578055Y905575D1*
X573247Y907952D1*
X585240Y932952D2*
X535055Y956884D1*
Y923391D1*
X540688Y732979D2*
X535934Y730603D1*
X531126Y725794D1*
X528749Y721041D1*
Y711480D1*
X531126Y706671D1*
X535934Y701918D1*
X540688Y699486D1*
X547873Y697109D1*
X559866D1*
X566996Y699486D1*
X571804Y701918D1*
X576558Y706671D1*
X578989Y711479D1*
Y721041D1*
X576558Y725794D1*
X571804Y730603D1*
X566996Y732979D1*
X528805Y760357D2*
X531181Y753227D1*
X535934Y750795D1*
X540743D1*
X545496Y753227D1*
X547928Y757980D1*
X550305Y767542D1*
X552681Y774727D1*
X557490Y779480D1*
X562243Y781857D1*
X569428D1*
X574181Y779480D1*
X576613Y777103D1*
X578989Y769918D1*
Y760357D1*
X576613Y753227D1*
X574181Y750795D1*
X569428Y748419D1*
X562243D1*
X557490Y750795D1*
X552681Y755604D1*
X550305Y762733D1*
X547928Y772295D1*
X545496Y777103D1*
X540743Y779480D1*
X535934D1*
X531181Y777103D1*
X528805Y769918D1*
Y760357D1*
X599405Y1222235D2*
X597028Y1226988D1*
X592220Y1231797D1*
X587467Y1234173D1*
X577905D1*
X573097Y1231797D1*
X568344Y1226988D1*
X565912Y1222235D1*
X563535Y1215050D1*
Y1203056D1*
X565912Y1195927D1*
X568344Y1191118D1*
X573097Y1186365D1*
X577905Y1183933D1*
X587467D1*
X592220Y1186365D1*
X597028Y1191118D1*
X599405Y1195927D1*
X645961Y1217427D2*
X643529Y1210241D1*
X638776Y1205433D1*
X631591Y1203056D1*
X629214D1*
X622029Y1205433D1*
X617276Y1210241D1*
X614844Y1217427D1*
Y1219803D1*
X617276Y1226988D1*
X622029Y1231741D1*
X629214Y1234118D1*
X631591D1*
X638776Y1231741D1*
X643529Y1226988D1*
X645961Y1217427D1*
Y1205433D1*
X643529Y1193495D1*
X638776Y1186310D1*
X631591Y1183933D1*
X626838D1*
X619653Y1186310D1*
X617276Y1191118D1*
X584135Y1122819D2*
X605635D1*
X612820Y1125251D1*
X615252Y1127627D1*
X617628Y1132381D1*
Y1137189D1*
X615252Y1141942D1*
X612820Y1144374D1*
X605635Y1146751D1*
X584135D1*
Y1096511D1*
X600881Y1122819D2*
X617628Y1096511D1*
X637876Y1146695D2*
X664129D1*
X649814Y1127572D1*
X656999D1*
X661752Y1125196D1*
X664129Y1122819D1*
X666561Y1115634D1*
Y1110881D1*
X664129Y1103696D1*
X659376Y1098887D1*
X652191Y1096511D1*
X645006D1*
X637876Y1098887D1*
X635499Y1101319D1*
X633067Y1106072D1*
M02*
